<svg xmlns="http://www.w3.org/2000/svg" width="24" height="24" viewBox="0 0 24 24" fill="currentColor">
  <path d="M20.447 20.452H16.89v-5.569c0-1.327-.025-3.037-1.852-3.037-1.853 
  0-2.136 1.445-2.136 2.939v5.667H9.345V9h3.4v1.561h.05c.474-.9 
  1.635-1.852 3.367-1.852 3.6 0 4.267 2.368 4.267 
  5.452v6.291zM5.337 7.433a1.963 1.963 0 1 1 
  0-3.926 1.963 1.963 0 0 1 0 3.926zM6.91 20.452H3.76V9h3.15v11.452zM22.225 
  0H1.771C.792 0 0 .774 0 1.729v20.542C0 23.227.792 24 1.771 
  24h20.451C23.2 24 24 23.227 24 22.271V1.729C24 .774 
  23.2 0 22.222 0h.003z"></path>
</svg>
